<svg viewBox="0 0 138 46" fill="none" xmlns="http://www.w3.org/2000/svg">
    <path
        d="M10.5575 0.327999V28.616C10.5575 30.024 10.6002 31.3253 10.6855 32.52C10.8135 33.672 11.0695 34.6533 11.4535 35.464C11.8802 36.2747 12.4988 36.9147 13.3095 37.384C14.1202 37.8107 15.2295 38.024 16.6375 38.024C18.0455 38.024 19.1548 37.8107 19.9655 37.384C20.7762 36.9147 21.3735 36.2747 21.7575 35.464C22.1842 34.6533 22.4402 33.672 22.5255 32.52C22.6535 31.3253 22.7175 30.024 22.7175 28.616V0.327999H32.3175V27.336C32.3175 30.408 32.1042 33.096 31.6775 35.4C31.2935 37.704 30.5255 39.624 29.3735 41.16C28.2215 42.696 26.6215 43.848 24.5735 44.616C22.5255 45.384 19.8802 45.768 16.6375 45.768C13.3948 45.768 10.7495 45.384 8.7015 44.616C6.6535 43.848 5.0535 42.696 3.9015 41.16C2.7495 39.624 1.96017 37.704 1.5335 35.4C1.1495 33.096 0.9575 30.408 0.9575 27.336V0.327999H10.5575ZM63.3965 25.096L63.9085 12.616H63.3325L55.0125 35.592L46.6925 12.616H46.1165L46.6285 25.096V45H38.3085V0.327999H49.6365L55.1405 15.368H55.6525L61.1565 0.327999H71.7165V45H63.3965V25.096ZM80.0755 45V0.327999H89.7395V37.128H108.94V45H80.0755Z"
        fill="white" />
    <path d="M124.313 8.2V45H114.713V8.2H101.849V0.327999H137.177V8.2H124.313Z" fill="white" />
</svg>
    