<svg viewBox="0 0 175 175" fill="none" xmlns="http://www.w3.org/2000/svg">
	<rect x="2.5" y="2.5" width="170" height="170" stroke="white" stroke-width="5" />
	<rect x="2.5" y="86.5" width="170" height="41" stroke="white" stroke-width="5" />
	<rect x="18" y="102" width="139" height="10" rx="2" fill="#D9D9D9" />
	<rect x="18" y="146" width="139" height="10" rx="2" fill="#D9D9D9" />
	<path d="M35.3775 50.896V42.064L62.8975 27.344V36.176L43.8895 46.224V46.736L62.8975 56.784V65.616L35.3775 50.896ZM73.1125 66V58.896H82.7125V28.432H73.1125V21.328H101.913V28.432H92.3125V58.896H101.913V66H73.1125ZM112.128 56.784L131.136 46.736V46.224L112.128 36.176V27.344L139.648 42.064V50.896L112.128 65.616V56.784Z" fill="white" />
</svg>
