<svg viewBox="0 0 175 175" fill="none" xmlns="http://www.w3.org/2000/svg">
	<rect x="2.5" y="2.5" width="170" height="170" stroke="white" stroke-width="5" />
	<path d="M35.3775 50.896V42.064L62.8975 27.344V36.176L43.8895 46.224V46.736L62.8975 56.784V65.616L35.3775 50.896ZM73.1765 66V21.328H90.4565C92.6325 21.328 94.5738 21.6693 96.2805 22.352C97.9872 22.992 99.4165 23.9307 100.569 25.168C101.763 26.4053 102.659 27.8987 103.257 29.648C103.854 31.3973 104.153 33.36 104.153 35.536C104.153 37.712 103.854 39.6747 103.257 41.424C102.659 43.1733 101.763 44.6667 100.569 45.904C99.4165 47.1413 97.9872 48.1013 96.2805 48.784C94.5738 49.424 92.6325 49.744 90.4565 49.744H82.8405V66H73.1765ZM82.8405 42H88.0245C90.2858 42 91.8432 41.5733 92.6965 40.72C93.5925 39.8667 94.0405 38.4587 94.0405 36.496V34.576C94.0405 32.6133 93.5925 31.2053 92.6965 30.352C91.8432 29.4987 90.2858 29.072 88.0245 29.072H82.8405V42ZM112.128 56.784L131.136 46.736V46.224L112.128 36.176V27.344L139.648 42.064V50.896L112.128 65.616V56.784Z" fill="white" />
</svg>
