<svg viewBox="0 0 175 175" fill="none" xmlns="http://www.w3.org/2000/svg">
	<rect x="2.5" y="2.5" width="170" height="170" stroke="white" stroke-width="5" />
	<rect x="2.5" y="86.5" width="170" height="41" stroke="white" stroke-width="5" />
	<rect x="18" y="102" width="139" height="10" rx="2" fill="#D9D9D9" />
	<rect x="18" y="146" width="139" height="10" rx="2" fill="#D9D9D9" />
	<path d="M30.7149 62.576C26.2349 62.576 22.9069 61.072 20.7309 58.064C18.5869 55.024 17.5149 50.752 17.5149 45.248C17.5149 39.744 18.5869 35.488 20.7309 32.48C22.9069 29.44 26.2349 27.92 30.7149 27.92C32.4429 27.92 33.9629 28.16 35.2749 28.64C36.6189 29.088 37.7709 29.728 38.7309 30.56C39.6909 31.392 40.4749 32.4 41.0829 33.584C41.7229 34.768 42.2189 36.096 42.5709 37.568L35.8509 39.2C35.6589 38.4 35.4349 37.664 35.1789 36.992C34.9229 36.32 34.5869 35.744 34.1709 35.264C33.7869 34.784 33.2909 34.416 32.6829 34.16C32.1069 33.872 31.4029 33.728 30.5709 33.728C28.6189 33.728 27.2269 34.496 26.3949 36.032C25.5949 37.536 25.1949 39.632 25.1949 42.32V48.176C25.1949 50.864 25.5949 52.976 26.3949 54.512C27.2269 56.016 28.6189 56.768 30.5709 56.768C32.2349 56.768 33.4349 56.256 34.1709 55.232C34.9389 54.208 35.4989 52.896 35.8509 51.296L42.5709 52.928C42.2189 54.4 41.7229 55.728 41.0829 56.912C40.4749 58.096 39.6909 59.12 38.7309 59.984C37.7709 60.816 36.6189 61.456 35.2749 61.904C33.9629 62.352 32.4429 62.576 30.7149 62.576ZM47.5921 56.48H55.1761V32H47.5921V26.48H62.2801V56.48H69.8641V62H47.5921V56.48ZM96.4854 62C95.0134 62 93.8294 61.632 92.9334 60.896C92.0374 60.128 91.5094 59.04 91.3494 57.632H91.1094C90.6614 59.264 89.7654 60.496 88.4214 61.328C87.1094 62.16 85.4934 62.576 83.5734 62.576C81.1734 62.576 79.2374 61.936 77.7654 60.656C76.3254 59.344 75.6054 57.52 75.6054 55.184C75.6054 52.592 76.5494 50.672 78.4374 49.424C80.3254 48.176 83.0934 47.552 86.7414 47.552H90.7254V46.304C90.7254 44.832 90.3734 43.728 89.6694 42.992C88.9974 42.224 87.8454 41.84 86.2134 41.84C84.7094 41.84 83.4934 42.128 82.5654 42.704C81.6374 43.28 80.8374 44.032 80.1654 44.96L76.2774 41.504C77.1094 40.096 78.4054 38.944 80.1654 38.048C81.9574 37.12 84.2454 36.656 87.0294 36.656C90.4214 36.656 93.0614 37.44 94.9494 39.008C96.8694 40.544 97.8294 42.88 97.8294 46.016V56.864H100.565V62H96.4854ZM86.2614 57.92C87.5094 57.92 88.5654 57.616 89.4294 57.008C90.2934 56.4 90.7254 55.52 90.7254 54.368V51.392H86.9334C84.0214 51.392 82.5654 52.368 82.5654 54.32V55.28C82.5654 56.144 82.9014 56.8 83.5734 57.248C84.2454 57.696 85.1414 57.92 86.2614 57.92ZM116.003 62.576C113.251 62.576 110.851 62.16 108.803 61.328C106.787 60.496 105.267 59.36 104.243 57.92L108.227 54.224C109.187 55.28 110.307 56.112 111.587 56.72C112.899 57.296 114.387 57.584 116.051 57.584C117.459 57.584 118.563 57.376 119.363 56.96C120.163 56.512 120.563 55.84 120.563 54.944C120.563 54.24 120.291 53.76 119.747 53.504C119.203 53.216 118.451 52.992 117.491 52.832L113.507 52.208C112.387 52.048 111.347 51.808 110.387 51.488C109.427 51.136 108.595 50.672 107.891 50.096C107.187 49.52 106.627 48.816 106.211 47.984C105.795 47.152 105.587 46.144 105.587 44.96C105.587 42.368 106.579 40.336 108.563 38.864C110.547 37.392 113.331 36.656 116.915 36.656C119.347 36.656 121.411 36.992 123.107 37.664C124.835 38.304 126.211 39.232 127.235 40.448L123.683 44.48C122.947 43.68 122.003 43.008 120.851 42.464C119.699 41.92 118.307 41.648 116.675 41.648C113.923 41.648 112.547 42.48 112.547 44.144C112.547 44.88 112.819 45.392 113.363 45.68C113.907 45.936 114.659 46.144 115.619 46.304L119.555 46.928C120.675 47.088 121.715 47.344 122.675 47.696C123.635 48.016 124.467 48.464 125.171 49.04C125.907 49.616 126.483 50.32 126.899 51.152C127.315 51.984 127.523 52.992 127.523 54.176C127.523 56.768 126.515 58.816 124.499 60.32C122.515 61.824 119.683 62.576 116.003 62.576ZM144.784 62.576C142.032 62.576 139.632 62.16 137.584 61.328C135.568 60.496 134.048 59.36 133.024 57.92L137.008 54.224C137.968 55.28 139.088 56.112 140.368 56.72C141.68 57.296 143.168 57.584 144.832 57.584C146.24 57.584 147.344 57.376 148.144 56.96C148.944 56.512 149.344 55.84 149.344 54.944C149.344 54.24 149.072 53.76 148.528 53.504C147.984 53.216 147.232 52.992 146.272 52.832L142.288 52.208C141.168 52.048 140.128 51.808 139.168 51.488C138.208 51.136 137.376 50.672 136.672 50.096C135.968 49.52 135.408 48.816 134.992 47.984C134.576 47.152 134.368 46.144 134.368 44.96C134.368 42.368 135.36 40.336 137.344 38.864C139.328 37.392 142.112 36.656 145.696 36.656C148.128 36.656 150.192 36.992 151.888 37.664C153.616 38.304 154.992 39.232 156.016 40.448L152.464 44.48C151.728 43.68 150.784 43.008 149.632 42.464C148.48 41.92 147.088 41.648 145.456 41.648C142.704 41.648 141.328 42.48 141.328 44.144C141.328 44.88 141.6 45.392 142.144 45.68C142.688 45.936 143.44 46.144 144.4 46.304L148.336 46.928C149.456 47.088 150.496 47.344 151.456 47.696C152.416 48.016 153.248 48.464 153.952 49.04C154.688 49.616 155.264 50.32 155.68 51.152C156.096 51.984 156.304 52.992 156.304 54.176C156.304 56.768 155.296 58.816 153.28 60.32C151.296 61.824 148.464 62.576 144.784 62.576Z" fill="white" />
</svg>
