<svg viewBox="0 0 175 175" fill="none" xmlns="http://www.w3.org/2000/svg">
	<rect x="2.5" y="2.5" width="170" height="170" stroke="white" stroke-width="5" />
	<path d="M35.3775 50.896V42.064L62.8975 27.344V36.176L43.8895 46.224V46.736L62.8975 56.784V65.616L35.3775 50.896ZM72.4085 21.328H86.8085C92.8245 21.328 97.2832 23.248 100.185 27.088C103.086 30.928 104.537 36.4533 104.537 43.664C104.537 50.8747 103.086 56.4 100.185 60.24C97.2832 64.08 92.8245 66 86.8085 66H72.4085V21.328ZM86.1685 58.448C89.0272 58.448 91.1178 57.5307 92.4405 55.696C93.7632 53.8613 94.4245 51.1947 94.4245 47.696V39.568C94.4245 36.112 93.7632 33.4667 92.4405 31.632C91.1178 29.7973 89.0272 28.88 86.1685 28.88H81.8805V58.448H86.1685ZM112.128 56.784L131.136 46.736V46.224L112.128 36.176V27.344L139.648 42.064V50.896L112.128 65.616V56.784Z" fill="white" />
</svg>
